<svg xmlns="http://www.w3.org/2000/svg" width="261" height="59" aria-label="Regulations.gov Branding"><g fill="none" fill-rule="nonzero"><path fill="#3E5A76" d="M3.048 52.556 2.316 56h1.116l.744-3.444 4.152-5.124h-1.32l-3.252 4.152-1.752-4.152H.792l2.256 5.124zm3.156.996c0 .376.06.722.18 1.038.12.316.292.588.516.816.224.228.498.406.822.534.324.128.69.192 1.098.192.544 0 1.028-.108 1.452-.324a3.315 3.315 0 0 0 1.08-.87c.296-.364.52-.782.672-1.254.152-.472.228-.96.228-1.464 0-.84-.22-1.478-.66-1.914-.44-.436-1.08-.654-1.92-.654-.544 0-1.03.108-1.458.324a3.396 3.396 0 0 0-1.092.864c-.3.36-.528.776-.684 1.248-.156.472-.234.96-.234 1.464zm1.02-.012c0-.32.05-.656.15-1.008.1-.352.25-.674.45-.966.2-.292.448-.534.744-.726.296-.192.64-.288 1.032-.288.28 0 .522.046.726.138.204.092.374.216.51.372s.236.342.3.558c.064.216.096.444.096.684 0 .304-.05.628-.15.972-.1.344-.248.662-.444.954a2.647 2.647 0 0 1-.72.726 1.725 1.725 0 0 1-.99.288c-.56 0-.984-.156-1.272-.468-.288-.312-.432-.724-.432-1.236zM17.82 56l1.308-6.204h-1.02l-.72 3.432a2.853 2.853 0 0 1-.768 1.398c-.192.188-.41.338-.654.45a1.89 1.89 0 0 1-.798.168c-.304 0-.56-.07-.768-.21-.208-.14-.312-.358-.312-.654a3.456 3.456 0 0 1 .048-.474l.048-.27c.016-.088.032-.16.048-.216l.792-3.624h-1.02l-.756 3.54c-.056.24-.1.468-.132.684a3.758 3.758 0 0 0-.048.528c0 .552.142.954.426 1.206.284.252.718.378 1.302.378.432 0 .844-.088 1.236-.264.392-.176.716-.444.972-.804h.024l-.192.936h.984zm2.976-6.204L19.512 56h1.008l.588-2.748c.048-.232.112-.482.192-.75s.188-.502.324-.702c.16-.248.35-.46.57-.636.22-.176.47-.3.75-.372.12-.032.22-.05.3-.054.08-.004.184-.006.312-.006h.144c.072 0 .124.004.156.012l.24-1.092a.467.467 0 0 0-.18-.012 1.274 1.274 0 0 1-.18.012c-.52 0-.966.14-1.338.42-.372.28-.678.632-.918 1.056h-.024l.3-1.332h-.96zM30.348 56l4.836-8.568h-1.212l-4.068 7.452h-.024l-.876-7.452H27.84L29.064 56h1.284zm3.42-2.448c0 .376.06.722.18 1.038.12.316.292.588.516.816.224.228.498.406.822.534.324.128.69.192 1.098.192.544 0 1.028-.108 1.452-.324a3.315 3.315 0 0 0 1.08-.87c.296-.364.52-.782.672-1.254.152-.472.228-.96.228-1.464 0-.84-.22-1.478-.66-1.914-.44-.436-1.08-.654-1.92-.654-.544 0-1.03.108-1.458.324a3.396 3.396 0 0 0-1.092.864c-.3.36-.528.776-.684 1.248-.156.472-.234.96-.234 1.464zm1.02-.012c0-.32.05-.656.15-1.008.1-.352.25-.674.45-.966.2-.292.448-.534.744-.726.296-.192.64-.288 1.032-.288.28 0 .522.046.726.138.204.092.374.216.51.372s.236.342.3.558c.064.216.096.444.096.684 0 .304-.05.628-.15.972-.1.344-.248.662-.444.954a2.647 2.647 0 0 1-.72.726 1.725 1.725 0 0 1-.99.288c-.56 0-.984-.156-1.272-.468-.288-.312-.432-.724-.432-1.236zm8.16-4.86.264-1.248H42.18l-.264 1.248h1.032zm-1.26 1.116L40.404 56h1.008l1.296-6.204h-1.02zm6.42 1.968h1.02c-.024-.728-.242-1.262-.654-1.602-.412-.34-.97-.51-1.674-.51-.552 0-1.042.106-1.47.318a3.234 3.234 0 0 0-1.08.852 3.703 3.703 0 0 0-.66 1.218 4.597 4.597 0 0 0-.222 1.428c0 .848.214 1.504.642 1.968.428.464 1.066.696 1.914.696.728 0 1.336-.184 1.824-.552.488-.368.824-.904 1.008-1.608h-1.02a1.996 1.996 0 0 1-.684.924c-.312.232-.688.348-1.128.348-.288 0-.53-.048-.726-.144-.196-.096-.354-.224-.474-.384s-.206-.348-.258-.564a2.914 2.914 0 0 1-.078-.684c0-.336.052-.678.156-1.026.104-.348.258-.662.462-.942.204-.28.456-.508.756-.684.3-.176.646-.264 1.038-.264.408 0 .728.106.96.318.232.212.348.51.348.894zm2.628 1.44h4.668l.06-.348c.024-.144.036-.296.036-.456 0-.872-.21-1.548-.63-2.028-.42-.48-1.086-.72-1.998-.72-.424 0-.83.096-1.218.288a3.11 3.11 0 0 0-1.02.816 4.059 4.059 0 0 0-.696 1.266 4.899 4.899 0 0 0-.258 1.626c0 .272.04.554.12.846.08.292.22.56.42.804.2.244.47.444.81.6.34.156.766.234 1.278.234.336 0 .656-.044.96-.132.304-.088.58-.218.828-.39.248-.172.46-.388.636-.648s.304-.562.384-.906h-1.02c-.144.384-.364.678-.66.882-.296.204-.672.306-1.128.306a1.784 1.784 0 0 1-1.116-.39 1.311 1.311 0 0 1-.36-.468 1.497 1.497 0 0 1-.132-.642c0-.184.012-.364.036-.54zm3.744-.9h-3.6c.072-.24.168-.466.288-.678.12-.212.268-.398.444-.558.176-.16.382-.286.618-.378.236-.092.502-.138.798-.138.28 0 .516.05.708.15.192.1.346.232.462.396.116.164.196.352.24.564.044.212.058.426.042.642zm7.356-3.624.264-1.248h-1.032l-.264 1.248h1.032zm-1.26 1.116L59.292 56H60.3l1.296-6.204h-1.02zm2.676 0L61.956 56h1.008l.72-3.432c.064-.248.148-.486.252-.714.104-.228.248-.422.432-.582.192-.208.426-.38.702-.516a1.87 1.87 0 0 1 .834-.204c.304 0 .56.07.768.21.208.14.312.358.312.654 0 .056-.006.126-.018.21a8.84 8.84 0 0 1-.042.264l-.048.264a3.574 3.574 0 0 0-.036.222L66.048 56h1.02l.756-3.54c.056-.24.1-.468.132-.684.032-.216.048-.392.048-.528 0-.552-.142-.956-.426-1.212-.284-.256-.718-.384-1.302-.384-.432 0-.844.09-1.236.27a2.41 2.41 0 0 0-.972.81h-.024l.192-.936h-.984zm10.632-2.364L72.096 56h1.14l.816-3.924h3.96l.204-.96h-3.96l.564-2.724h4.5l.204-.96h-5.64zm6.192 5.772h4.668l.06-.348c.024-.144.036-.296.036-.456 0-.872-.21-1.548-.63-2.028-.42-.48-1.086-.72-1.998-.72-.424 0-.83.096-1.218.288a3.11 3.11 0 0 0-1.02.816 4.059 4.059 0 0 0-.696 1.266 4.899 4.899 0 0 0-.258 1.626c0 .272.04.554.12.846.08.292.22.56.42.804.2.244.47.444.81.6.34.156.766.234 1.278.234.336 0 .656-.044.96-.132.304-.088.58-.218.828-.39.248-.172.46-.388.636-.648s.304-.562.384-.906h-1.02c-.144.384-.364.678-.66.882-.296.204-.672.306-1.128.306a1.784 1.784 0 0 1-1.116-.39 1.311 1.311 0 0 1-.36-.468 1.497 1.497 0 0 1-.132-.642c0-.184.012-.364.036-.54zm3.744-.9h-3.6c.072-.24.168-.466.288-.678.12-.212.268-.398.444-.558.176-.16.382-.286.618-.378.236-.092.502-.138.798-.138.28 0 .516.05.708.15.192.1.346.232.462.396.116.164.196.352.24.564.044.212.058.426.042.642zM90.804 56l1.812-8.568h-1.008l-.66 3.312h-.024a1.272 1.272 0 0 0-.3-.522 1.595 1.595 0 0 0-.474-.336 2.31 2.31 0 0 0-.57-.18 3.315 3.315 0 0 0-.588-.054c-.544 0-1.03.118-1.458.354a3.475 3.475 0 0 0-1.08.918 4.225 4.225 0 0 0-.672 1.266 4.434 4.434 0 0 0-.234 1.41c0 .376.052.72.156 1.032.104.312.26.578.468.798.208.22.464.392.768.516s.652.186 1.044.186c.416 0 .786-.07 1.11-.21.324-.14.638-.41.942-.81h.024l-.216.888h.96zm-4.236-2.4c0-.344.052-.696.156-1.056.104-.36.26-.688.468-.984.208-.296.464-.538.768-.726.304-.188.66-.282 1.068-.282.504 0 .89.152 1.158.456.268.304.402.688.402 1.152 0 .32-.054.662-.162 1.026a3.649 3.649 0 0 1-.468 1.002 2.69 2.69 0 0 1-.762.756c-.304.2-.648.3-1.032.3-.56 0-.966-.148-1.218-.444-.252-.296-.378-.696-.378-1.2zm7.068-.396h4.668l.06-.348c.024-.144.036-.296.036-.456 0-.872-.21-1.548-.63-2.028-.42-.48-1.086-.72-1.998-.72-.424 0-.83.096-1.218.288a3.11 3.11 0 0 0-1.02.816 4.059 4.059 0 0 0-.696 1.266 4.899 4.899 0 0 0-.258 1.626c0 .272.04.554.12.846.08.292.22.56.42.804.2.244.47.444.81.6.34.156.766.234 1.278.234.336 0 .656-.044.96-.132.304-.088.58-.218.828-.39.248-.172.46-.388.636-.648s.304-.562.384-.906h-1.02c-.144.384-.364.678-.66.882-.296.204-.672.306-1.128.306a1.784 1.784 0 0 1-1.116-.39 1.311 1.311 0 0 1-.36-.468 1.497 1.497 0 0 1-.132-.642c0-.184.012-.364.036-.54zm3.744-.9h-3.6c.072-.24.168-.466.288-.678.12-.212.268-.398.444-.558.176-.16.382-.286.618-.378.236-.092.502-.138.798-.138.28 0 .516.05.708.15.192.1.346.232.462.396.116.164.196.352.24.564.044.212.058.426.042.642zm2.76-2.508L98.856 56h1.008l.588-2.748c.048-.232.112-.482.192-.75s.188-.502.324-.702c.16-.248.35-.46.57-.636.22-.176.47-.3.75-.372.12-.032.22-.05.3-.054.08-.004.184-.006.312-.006h.144c.072 0 .124.004.156.012l.24-1.092a.467.467 0 0 0-.18-.012 1.274 1.274 0 0 1-.18.012c-.52 0-.966.14-1.338.42-.372.28-.678.632-.918 1.056h-.024l.3-1.332h-.96zm3.396 1.872h1.02c.032-.2.1-.37.204-.51.104-.14.232-.256.384-.348.152-.092.322-.158.51-.198a2.731 2.731 0 0 1 .996-.024c.148.024.282.066.402.126.12.06.22.142.3.246.08.104.12.24.12.408 0 .208-.03.372-.09.492s-.154.212-.282.276c-.128.064-.29.11-.486.138-.196.028-.43.054-.702.078-.344.032-.7.072-1.068.12a3.73 3.73 0 0 0-1.008.27 1.86 1.86 0 0 0-.75.582c-.196.256-.294.612-.294 1.068 0 .32.05.59.15.81.1.22.234.4.402.54s.366.24.594.3c.228.06.474.09.738.09.528 0 .952-.076 1.272-.228a2.14 2.14 0 0 0 .804-.66l.024.024c-.032.272.024.484.168.636.144.152.356.228.636.228a2.07 2.07 0 0 0 .624-.132l.156-.756-.162.054a.518.518 0 0 1-.162.03.292.292 0 0 1-.216-.084c-.056-.056-.084-.156-.084-.3s.022-.296.066-.456c.044-.16.078-.304.102-.432l.396-1.692c.04-.168.082-.354.126-.558.044-.204.066-.394.066-.57 0-.312-.062-.57-.186-.774a1.381 1.381 0 0 0-.498-.486 2.19 2.19 0 0 0-.72-.252 4.969 4.969 0 0 0-.864-.072c-.328 0-.644.04-.948.12-.304.08-.576.204-.816.372s-.442.378-.606.63c-.164.252-.27.55-.318.894zm.264 2.712c.008-.264.076-.47.204-.618.128-.148.292-.262.492-.342.2-.08.426-.138.678-.174.252-.036.502-.066.75-.09.248-.024.482-.058.702-.102.22-.044.402-.118.546-.222h.024c-.072.288-.138.568-.198.84s-.174.524-.342.756c-.352.544-.932.816-1.74.816-.288 0-.546-.072-.774-.216-.228-.144-.342-.36-.342-.648zm7.068-6.948L109.08 56h1.008l1.8-8.568h-1.02zm5.664 7.608 1.404-6.648h1.824c.472 0 .862.068 1.17.204.308.136.55.316.726.54.176.224.298.484.366.78.068.296.102.6.102.912 0 .52-.074 1.032-.222 1.536a4.149 4.149 0 0 1-.672 1.35c-.3.396-.676.716-1.128.96-.452.244-.982.366-1.59.366h-1.98zm.492-7.608L115.212 56h3.288c.712 0 1.36-.124 1.944-.372a4.22 4.22 0 0 0 1.5-1.062c.416-.46.74-1.016.972-1.668.232-.652.348-1.382.348-2.19 0-1.016-.274-1.816-.822-2.4-.548-.584-1.354-.876-2.418-.876h-3zm7.728 5.772h4.668l.06-.348c.024-.144.036-.296.036-.456 0-.872-.21-1.548-.63-2.028-.42-.48-1.086-.72-1.998-.72-.424 0-.83.096-1.218.288a3.11 3.11 0 0 0-1.02.816 4.059 4.059 0 0 0-.696 1.266 4.899 4.899 0 0 0-.258 1.626c0 .272.04.554.12.846.08.292.22.56.42.804.2.244.47.444.81.6.34.156.766.234 1.278.234.336 0 .656-.044.96-.132.304-.088.58-.218.828-.39.248-.172.46-.388.636-.648s.304-.562.384-.906h-1.02c-.144.384-.364.678-.66.882-.296.204-.672.306-1.128.306a1.784 1.784 0 0 1-1.116-.39 1.311 1.311 0 0 1-.36-.468 1.497 1.497 0 0 1-.132-.642c0-.184.012-.364.036-.54zm3.744-.9h-3.6c.072-.24.168-.466.288-.678.12-.212.268-.398.444-.558.176-.16.382-.286.618-.378.236-.092.502-.138.798-.138.28 0 .516.05.708.15.192.1.346.232.462.396.116.164.196.352.24.564.044.212.058.426.042.642zm6.516-.54h1.02c-.024-.728-.242-1.262-.654-1.602-.412-.34-.97-.51-1.674-.51-.552 0-1.042.106-1.47.318a3.234 3.234 0 0 0-1.08.852 3.703 3.703 0 0 0-.66 1.218 4.597 4.597 0 0 0-.222 1.428c0 .848.214 1.504.642 1.968.428.464 1.066.696 1.914.696.728 0 1.336-.184 1.824-.552.488-.368.824-.904 1.008-1.608h-1.02a1.996 1.996 0 0 1-.684.924c-.312.232-.688.348-1.128.348-.288 0-.53-.048-.726-.144-.196-.096-.354-.224-.474-.384s-.206-.348-.258-.564a2.914 2.914 0 0 1-.078-.684c0-.336.052-.678.156-1.026.104-.348.258-.662.462-.942.204-.28.456-.508.756-.684.3-.176.646-.264 1.038-.264.408 0 .728.106.96.318.232.212.348.51.348.894zm3.948-3.084.264-1.248h-1.032l-.264 1.248h1.032zm-1.26 1.116L136.416 56h1.008l1.296-6.204h-1.02zm5.688 1.824h1.02c0-.36-.068-.666-.204-.918a1.763 1.763 0 0 0-.534-.612c-.22-.156-.47-.268-.75-.336s-.564-.102-.852-.102c-.288 0-.57.04-.846.12-.276.08-.522.194-.738.342a1.74 1.74 0 0 0-.522.558c-.132.224-.198.48-.198.768 0 .232.046.436.138.612.092.176.216.33.372.462s.332.246.528.342c.196.096.398.184.606.264.2.088.398.17.594.246.196.076.37.158.522.246.152.088.276.186.372.294a.567.567 0 0 1 .144.39.755.755 0 0 1-.126.444.978.978 0 0 1-.33.294c-.136.076-.288.13-.456.162a2.688 2.688 0 0 1-.504.048c-.216 0-.422-.02-.618-.06a1.56 1.56 0 0 1-.516-.198.973.973 0 0 1-.348-.372 1.029 1.029 0 0 1-.102-.57h-1.008c0 .4.064.734.192 1.002s.302.482.522.642c.22.16.482.274.786.342.304.068.636.102.996.102.304 0 .606-.034.906-.102.3-.068.57-.178.81-.33.24-.152.436-.35.588-.594.152-.244.228-.538.228-.882 0-.24-.048-.45-.144-.63-.096-.18-.22-.336-.372-.468s-.326-.25-.522-.354a7.659 7.659 0 0 0-.606-.288c-.2-.08-.398-.158-.594-.234a4.071 4.071 0 0 1-.528-.246 1.427 1.427 0 0 1-.372-.288.543.543 0 0 1-.138-.372c0-.16.04-.29.12-.39.08-.1.182-.18.306-.24s.266-.102.426-.126c.16-.024.316-.036.468-.036.36 0 .668.09.924.27.256.18.376.446.36.798zm4.008-2.94.264-1.248h-1.032l-.264 1.248h1.032zm-1.26 1.116L144.852 56h1.008l1.296-6.204h-1.02zm1.632 3.756c0 .376.06.722.18 1.038.12.316.292.588.516.816.224.228.498.406.822.534.324.128.69.192 1.098.192.544 0 1.028-.108 1.452-.324a3.315 3.315 0 0 0 1.08-.87c.296-.364.52-.782.672-1.254.152-.472.228-.96.228-1.464 0-.84-.22-1.478-.66-1.914-.44-.436-1.08-.654-1.92-.654-.544 0-1.03.108-1.458.324a3.396 3.396 0 0 0-1.092.864c-.3.36-.528.776-.684 1.248-.156.472-.234.96-.234 1.464zm1.02-.012c0-.32.05-.656.15-1.008.1-.352.25-.674.45-.966.2-.292.448-.534.744-.726.296-.192.64-.288 1.032-.288.28 0 .522.046.726.138.204.092.374.216.51.372s.236.342.3.558c.064.216.096.444.096.684 0 .304-.05.628-.15.972-.1.344-.248.662-.444.954a2.647 2.647 0 0 1-.72.726 1.725 1.725 0 0 1-.99.288c-.56 0-.984-.156-1.272-.468-.288-.312-.432-.724-.432-1.236zm6.912-3.744L154.404 56h1.008l.72-3.432c.064-.248.148-.486.252-.714.104-.228.248-.422.432-.582.192-.208.426-.38.702-.516a1.87 1.87 0 0 1 .834-.204c.304 0 .56.07.768.21.208.14.312.358.312.654 0 .056-.006.126-.018.21a8.84 8.84 0 0 1-.042.264l-.048.264a3.574 3.574 0 0 0-.036.222L158.496 56h1.02l.756-3.54c.056-.24.1-.468.132-.684.032-.216.048-.392.048-.528 0-.552-.142-.956-.426-1.212-.284-.256-.718-.384-1.302-.384-.432 0-.844.09-1.236.27a2.41 2.41 0 0 0-.972.81h-.024l.192-.936h-.984zm10.644-2.364-1.8 8.568h1.092l1.5-7.5h.024l1.116 7.5h1.092l4.368-7.5h.024l-1.752 7.5h1.092l1.812-8.568h-1.584l-4.236 7.368h-.024l-1.14-7.368h-1.584zm9.192 4.236h1.02c.032-.2.1-.37.204-.51.104-.14.232-.256.384-.348.152-.092.322-.158.51-.198a2.731 2.731 0 0 1 .996-.024c.148.024.282.066.402.126.12.06.22.142.3.246.08.104.12.24.12.408 0 .208-.03.372-.09.492s-.154.212-.282.276c-.128.064-.29.11-.486.138-.196.028-.43.054-.702.078-.344.032-.7.072-1.068.12a3.73 3.73 0 0 0-1.008.27 1.86 1.86 0 0 0-.75.582c-.196.256-.294.612-.294 1.068 0 .32.05.59.15.81.1.22.234.4.402.54s.366.24.594.3c.228.06.474.09.738.09.528 0 .952-.076 1.272-.228a2.14 2.14 0 0 0 .804-.66l.024.024c-.032.272.024.484.168.636.144.152.356.228.636.228a2.07 2.07 0 0 0 .624-.132l.156-.756-.162.054a.518.518 0 0 1-.162.03.292.292 0 0 1-.216-.084c-.056-.056-.084-.156-.084-.3s.022-.296.066-.456c.044-.16.078-.304.102-.432l.396-1.692c.04-.168.082-.354.126-.558.044-.204.066-.394.066-.57 0-.312-.062-.57-.186-.774a1.381 1.381 0 0 0-.498-.486 2.19 2.19 0 0 0-.72-.252 4.969 4.969 0 0 0-.864-.072c-.328 0-.644.04-.948.12-.304.08-.576.204-.816.372s-.442.378-.606.63c-.164.252-.27.55-.318.894zm.264 2.712c.008-.264.076-.47.204-.618.128-.148.292-.262.492-.342.2-.08.426-.138.678-.174.252-.036.502-.066.75-.09.248-.024.482-.058.702-.102.22-.044.402-.118.546-.222h.024c-.072.288-.138.568-.198.84s-.174.524-.342.756c-.352.544-.932.816-1.74.816-.288 0-.546-.072-.774-.216-.228-.144-.342-.36-.342-.648zm7.08-6.948L181.08 56h1.008l.468-2.208 1.224-1.092 1.212 3.3h1.14l-1.536-3.912 2.7-2.292h-1.332l-3.12 2.7-.024-.024 1.068-5.04h-1.008zm6.516 1.248.264-1.248h-1.032l-.264 1.248h1.032zm-1.26 1.116L186.852 56h1.008l1.296-6.204h-1.02zm2.676 0L189.516 56h1.008l.72-3.432c.064-.248.148-.486.252-.714.104-.228.248-.422.432-.582.192-.208.426-.38.702-.516a1.87 1.87 0 0 1 .834-.204c.304 0 .56.07.768.21.208.14.312.358.312.654 0 .056-.006.126-.018.21a8.84 8.84 0 0 1-.042.264l-.048.264a3.574 3.574 0 0 0-.036.222L193.608 56h1.02l.756-3.54c.056-.24.1-.468.132-.684.032-.216.048-.392.048-.528 0-.552-.142-.956-.426-1.212-.284-.256-.718-.384-1.302-.384-.432 0-.844.09-1.236.27a2.41 2.41 0 0 0-.972.81h-.024l.192-.936h-.984zm10.932 5.304 1.116-5.304h-.96l-.192 1.14h-.024v-.024a1.36 1.36 0 0 0-.258-.522 1.68 1.68 0 0 0-.456-.396 2.415 2.415 0 0 0-1.254-.342 2.69 2.69 0 0 0-1.356.342c-.4.228-.738.524-1.014.888s-.488.774-.636 1.23a4.41 4.41 0 0 0-.222 1.368c0 .376.05.72.15 1.032.1.312.246.582.438.81.192.228.434.404.726.528s.63.186 1.014.186c.392 0 .756-.072 1.092-.216.336-.144.616-.384.84-.72l.024.024c-.08.304-.166.606-.258.906-.092.3-.218.566-.378.798a1.86 1.86 0 0 1-.618.564c-.252.144-.574.216-.966.216-.192 0-.38-.014-.564-.042-.184-.028-.346-.08-.486-.156s-.256-.18-.348-.312a1.013 1.013 0 0 1-.162-.51h-1.008c.008.344.082.638.222.882s.322.442.546.594c.224.152.482.264.774.336.292.072.598.108.918.108.672 0 1.244-.132 1.716-.396s.84-.708 1.104-1.332c.088-.216.172-.47.252-.762.08-.292.156-.598.228-.918zm-4.236-1.62c0-.288.048-.602.144-.942.096-.34.236-.656.42-.948a2.68 2.68 0 0 1 .684-.738c.272-.2.588-.3.948-.3.536 0 .934.148 1.194.444.26.296.39.688.39 1.176 0 .312-.046.642-.138.99-.092.348-.23.67-.414.966-.184.296-.418.54-.702.732a1.746 1.746 0 0 1-1.002.288c-.256 0-.48-.046-.672-.138-.192-.092-.35-.214-.474-.366s-.218-.328-.282-.528a2.074 2.074 0 0 1-.096-.636zM4.68 34H2.43V14.14h9.51c2.02 0 3.64.56 4.86 1.68 1.22 1.1 1.83 2.61 1.83 4.53 0 2.48-1.03 4.17-3.09 5.07-.58.26-1.15.45-1.71.57L19.05 34h-2.67l-4.8-7.62h-6.9V34zm0-9.75h6.87c2.12 0 3.58-.66 4.38-1.98.3-.5.45-1.14.45-1.92 0-1.26-.43-2.255-1.29-2.985-.86-.73-2-1.095-3.42-1.095H4.68v7.98zm23.67 7.95c2.02 0 3.47-.84 4.35-2.52h2.46c-.52 1.36-1.345 2.46-2.475 3.3-1.13.84-2.585 1.26-4.365 1.26-2.26 0-4.1-.75-5.52-2.25-1.38-1.46-2.07-3.29-2.07-5.49 0-2.22.66-4.05 1.98-5.49 1.4-1.5 3.22-2.25 5.46-2.25 2.24 0 4.06.75 5.46 2.25 1.32 1.44 1.98 3.27 1.98 5.49v.9H23.04c.16 1.38.71 2.52 1.65 3.42.96.92 2.18 1.38 3.66 1.38zm-.18-11.4c-1.38 0-2.54.43-3.48 1.29-.88.82-1.42 1.89-1.62 3.21h10.2c-.2-1.32-.74-2.39-1.62-3.21-.94-.86-2.1-1.29-3.48-1.29zm21.9.6V19h2.25v14.55c0 2.16-.615 3.805-1.845 4.935-1.23 1.13-2.885 1.695-4.965 1.695s-3.705-.4-4.875-1.2c-1.17-.8-1.965-1.86-2.385-3.18h2.49c.64 1.56 2.1 2.34 4.38 2.34 1.74 0 3-.4 3.78-1.2.78-.8 1.17-1.98 1.17-3.54v-2.07C48.85 33.11 47.06 34 44.7 34c-2.16 0-3.92-.74-5.28-2.22-1.32-1.44-1.98-3.24-1.98-5.4s.66-3.96 1.98-5.4c1.36-1.48 3.175-2.22 5.445-2.22 2.27 0 4.005.88 5.205 2.64zM45 31.96c.82 0 1.55-.145 2.19-.435.64-.29 1.19-.685 1.65-1.185.9-1.04 1.35-2.36 1.35-3.96s-.45-2.92-1.35-3.96c-.98-1.08-2.26-1.62-3.84-1.62-1.62 0-2.92.54-3.9 1.62-.94 1.06-1.41 2.38-1.41 3.96s.47 2.9 1.41 3.96c.98 1.08 2.28 1.62 3.9 1.62zM67.05 34v-2.34c-.54.72-1.2 1.33-1.98 1.83s-1.67.75-2.67.75-1.86-.14-2.58-.42a5.23 5.23 0 0 1-1.89-1.26c-1.24-1.22-1.86-2.83-1.86-4.83V19h2.25v8.67c0 1.38.39 2.48 1.17 3.3.78.82 1.79 1.23 3.03 1.23 1.26 0 2.33-.42 3.21-1.26.88-.86 1.32-1.96 1.32-3.3V19h2.25v15h-2.25zm8.4 0H73.2V13h2.25v21zm15.6-2.4c-1.2 1.76-2.99 2.64-5.37 2.64-2.16 0-3.92-.75-5.28-2.25-1.32-1.48-1.98-3.31-1.98-5.49s.66-4.01 1.98-5.49c1.36-1.5 3.17-2.25 5.43-2.25s4 .89 5.22 2.67V19h2.25v15h-2.25v-2.4zm-5.07.6c1.62 0 2.9-.56 3.84-1.68.9-1.06 1.35-2.4 1.35-4.02 0-1.62-.45-2.96-1.35-4.02-.94-1.12-2.22-1.68-3.84-1.68-1.6 0-2.9.56-3.9 1.68-.94 1.06-1.41 2.4-1.41 4.02 0 1.62.47 2.96 1.41 4.02 1 1.12 2.3 1.68 3.9 1.68zM98.82 34V20.98h-3.06V19h3.06v-5.37h2.25V19h3.45v1.98h-3.45V34h-2.25zm8.16-15h2.25v15h-2.25V19zm2.34-5.46v2.94h-2.43v-2.94h2.43zm10.32 5.22c2.24 0 4.06.75 5.46 2.25 1.32 1.44 1.98 3.27 1.98 5.49s-.66 4.05-1.98 5.49c-1.4 1.5-3.22 2.25-5.46 2.25-2.24 0-4.06-.75-5.46-2.25-1.32-1.44-1.98-3.27-1.98-5.49s.66-4.05 1.98-5.49c1.4-1.5 3.22-2.25 5.46-2.25zm0 13.44c1.62 0 2.9-.56 3.84-1.68.9-1.06 1.35-2.4 1.35-4.02 0-1.62-.45-2.96-1.35-4.02-.94-1.12-2.22-1.68-3.84-1.68-1.62 0-2.9.56-3.84 1.68-.9 1.06-1.35 2.4-1.35 4.02 0 1.62.45 2.96 1.35 4.02.94 1.12 2.22 1.68 3.84 1.68zM132.3 19v2.34c.54-.72 1.2-1.33 1.98-1.83s1.67-.75 2.67-.75 1.86.14 2.58.42c.72.28 1.35.7 1.89 1.26 1.24 1.22 1.86 2.83 1.86 4.83V34h-2.25v-8.67c0-1.38-.39-2.48-1.17-3.3-.78-.82-1.79-1.23-3.03-1.23-1.26 0-2.33.42-3.21 1.26-.88.86-1.32 1.96-1.32 3.3V34h-2.25V19h2.25zm23.55 4.02c-.2-1.56-1.455-2.34-3.765-2.34s-3.465.72-3.465 2.16c0 .6.245 1.055.735 1.365.49.31 1.105.565 1.845.765.74.2 1.545.385 2.415.555.87.17 1.675.41 2.415.72s1.355.735 1.845 1.275c.49.54.735 1.28.735 2.22 0 1.46-.55 2.575-1.65 3.345-1.1.77-2.59 1.155-4.47 1.155-2 0-3.59-.5-4.77-1.5-1.08-.88-1.66-2.03-1.74-3.45h2.34c.14 1.38.92 2.31 2.34 2.79.52.16 1.035.24 1.545.24s.985-.03 1.425-.09c.44-.06.87-.17 1.29-.33.96-.38 1.44-1.03 1.44-1.95 0-.62-.245-1.095-.735-1.425-.49-.33-1.105-.6-1.845-.81-.74-.21-1.545-.4-2.415-.57-.87-.17-1.675-.405-2.415-.705-.74-.3-1.355-.71-1.845-1.23s-.735-1.24-.735-2.16c0-1.36.495-2.415 1.485-3.165.99-.75 2.455-1.125 4.395-1.125 1.84 0 3.29.44 4.35 1.32.88.74 1.39 1.72 1.53 2.94h-2.28zm8.19 7.92V34h-2.91v-3.06h2.91zm15.24-9.54V19h2.25v14.55c0 2.16-.615 3.805-1.845 4.935-1.23 1.13-2.885 1.695-4.965 1.695s-3.705-.4-4.875-1.2c-1.17-.8-1.965-1.86-2.385-3.18h2.49c.64 1.56 2.1 2.34 4.38 2.34 1.74 0 3-.4 3.78-1.2.78-.8 1.17-1.98 1.17-3.54v-2.07c-1.22 1.78-3.01 2.67-5.37 2.67-2.16 0-3.92-.74-5.28-2.22-1.32-1.44-1.98-3.24-1.98-5.4s.66-3.96 1.98-5.4c1.36-1.48 3.175-2.22 5.445-2.22 2.27 0 4.005.88 5.205 2.64zm-5.07 10.56c.82 0 1.55-.145 2.19-.435.64-.29 1.19-.685 1.65-1.185.9-1.04 1.35-2.36 1.35-3.96s-.45-2.92-1.35-3.96c-.98-1.08-2.26-1.62-3.84-1.62-1.62 0-2.92.54-3.9 1.62-.94 1.06-1.41 2.38-1.41 3.96s.47 2.9 1.41 3.96c.98 1.08 2.28 1.62 3.9 1.62zm17.73-13.2c2.24 0 4.06.75 5.46 2.25 1.32 1.44 1.98 3.27 1.98 5.49s-.66 4.05-1.98 5.49c-1.4 1.5-3.22 2.25-5.46 2.25-2.24 0-4.06-.75-5.46-2.25-1.32-1.44-1.98-3.27-1.98-5.49s.66-4.05 1.98-5.49c1.4-1.5 3.22-2.25 5.46-2.25zm0 13.44c1.62 0 2.9-.56 3.84-1.68.9-1.06 1.35-2.4 1.35-4.02 0-1.62-.45-2.96-1.35-4.02-.94-1.12-2.22-1.68-3.84-1.68-1.62 0-2.9.56-3.84 1.68-.9 1.06-1.35 2.4-1.35 4.02 0 1.62.45 2.96 1.35 4.02.94 1.12 2.22 1.68 3.84 1.68zM214.71 19l-5.85 15h-2.64l-5.88-15h2.46l4.74 12.6 4.71-12.6h2.46z" class="brand-title"/><path fill="#5496D0" d="M213.538 9.673 216.088 4l-9.33 3.75-9.325-2.26 3.173 3.652L192 14.096l11.154-.818 3.942 5.482 3.654-5.578 11.587-.576"/><path fill="#5496D0" d="M126.518 8.173c-.466-.445-.7-.725-.7-.725s.245.27.7.725c.184.177.406.38.664.6.7.56 1.508 1.168 2.406 1.797 4.824 3.123 14.35 6.826 29.034 2.02 8.132-2.663 19.15-9.34 27.875-6.793 3.11.908 5.986 2.553 8.405 4.294l.125-.13c-.07-.076-6.973-7.66-15.11-9.576-6.822-1.604-15.2 2.148-21.933 5.163-1.432.64-2.783 1.25-4.05 1.774-19.305 8-29.042-1.077-29.63-1.652-.016-.016-.026-.015-.028-.017l-.12.13-.018-.018.017.017-.155.163c.012.013.058.108.138.183.34.33 1.3 1.243 2.753 2.415-.137-.133-.26-.254-.372-.367z"/></g></svg>